# xmcd
#
# Track frame offsets:
#       150
#       13345
#       27832
#       38967
#       51622
#       61342
#       73997
#       85052
#       97875
#       110812
#
# Disc length: 1652 seconds
#
# Revision: 1
# Processed by: cddbd v1.4PL0 Copyright (c) Steve Scherf et al.
# Submitted via: MusiCat 1.1
#
DISCID=8d06720a
DTITLE=Various Artist - Die hard Country
DYEAR=1900
DGENRE=
TTITLE0=The Image of me -Conway
TTITLE1=I'm The Only Hell-Paycheck
TTITLE2=Set 'Em Up Joe=Gosdin
TTITLE3=I'm a Ramblin man-Waylon Jennings
TTITLE4=Don't Come Home A Drinking-Loretta
TTITLE5=White Lightning-G Jones
TTITLE6=Together again-B Owens
TTITLE7=Folsom Prison Blues-Cash
TTITLE8=Redneck, Whitesox and Blue Ribon Beer- J Russel
TTITLE9=You Win Again-J Lewis
EXTD=\n\n
EXTT0=
EXTT1=
EXTT2=
EXTT3=
EXTT4=
EXTT5=
EXTT6=
EXTT7=
EXTT8=
EXTT9=
PLAYORDER=
